<mxfile host="app.diagrams.net" agent="Mozilla/5.0 (Windows NT 10.0; Win64; x64) AppleWebKit/537.36 (KHTML, like Gecko) Chrome/134.0.0.0 Safari/537.36" version="26.2.8">
  <diagram name="Página-1" id="LXNyjzS4xMCUMjakBzyG">
    <mxGraphModel dx="4080" dy="2243" grid="1" gridSize="10" guides="1" tooltips="1" connect="1" arrows="1" fold="1" page="1" pageScale="1" pageWidth="2000" pageHeight="1600" math="0" shadow="0">
      <root>
        <mxCell id="0" />
        <mxCell id="1" parent="0" />
        <mxCell id="xIWPowrSUF2ikZ3RjoKm-3" value="" style="rounded=1;whiteSpace=wrap;html=1;" parent="1" vertex="1">
          <mxGeometry x="410" y="110" width="1950" height="1230" as="geometry" />
        </mxCell>
        <mxCell id="oOpoHNsiLGJUsjlcoA77-2" value="Caso de Uso - Vino bebidas" style="text;html=1;align=center;verticalAlign=middle;whiteSpace=wrap;rounded=0;fontSize=40;" vertex="1" parent="1">
          <mxGeometry x="1025" y="140" width="720" height="30" as="geometry" />
        </mxCell>
        <mxCell id="oOpoHNsiLGJUsjlcoA77-3" value="Actor" style="shape=umlActor;verticalLabelPosition=bottom;verticalAlign=top;html=1;outlineConnect=0;" vertex="1" parent="1">
          <mxGeometry x="2440" y="490" width="120" height="200" as="geometry" />
        </mxCell>
        <mxCell id="oOpoHNsiLGJUsjlcoA77-4" value="Actor" style="shape=umlActor;verticalLabelPosition=bottom;verticalAlign=top;html=1;outlineConnect=0;" vertex="1" parent="1">
          <mxGeometry x="200" y="530" width="120" height="200" as="geometry" />
        </mxCell>
        <mxCell id="oOpoHNsiLGJUsjlcoA77-6" value="&lt;font style=&quot;font-size: 20px;&quot;&gt;GerarRelatorios&lt;/font&gt;" style="ellipse;whiteSpace=wrap;html=1;" vertex="1" parent="1">
          <mxGeometry x="510" y="190" width="210" height="80" as="geometry" />
        </mxCell>
        <mxCell id="oOpoHNsiLGJUsjlcoA77-7" value="&lt;font style=&quot;font-size: 20px;&quot;&gt;FiltraDados&lt;/font&gt;" style="ellipse;whiteSpace=wrap;html=1;" vertex="1" parent="1">
          <mxGeometry x="870" y="240" width="120" height="80" as="geometry" />
        </mxCell>
        <mxCell id="oOpoHNsiLGJUsjlcoA77-8" value="&lt;font style=&quot;font-size: 20px;&quot;&gt;RealizarSimulações&lt;/font&gt;" style="ellipse;whiteSpace=wrap;html=1;" vertex="1" parent="1">
          <mxGeometry x="540" y="390" width="220" height="100" as="geometry" />
        </mxCell>
        <mxCell id="oOpoHNsiLGJUsjlcoA77-9" value="&lt;font style=&quot;font-size: 20px;&quot;&gt;AnalisarGraficos&lt;/font&gt;" style="ellipse;whiteSpace=wrap;html=1;" vertex="1" parent="1">
          <mxGeometry x="700" y="585" width="190" height="90" as="geometry" />
        </mxCell>
        <mxCell id="oOpoHNsiLGJUsjlcoA77-10" value="&lt;font style=&quot;font-size: 20px;&quot;&gt;IntegraçãoBancaria&lt;/font&gt;" style="ellipse;whiteSpace=wrap;html=1;" vertex="1" parent="1">
          <mxGeometry x="480" y="960" width="210" height="110" as="geometry" />
        </mxCell>
        <mxCell id="oOpoHNsiLGJUsjlcoA77-11" value="&lt;font style=&quot;font-size: 20px;&quot;&gt;CadastrarDadosBancarios&lt;/font&gt;" style="ellipse;whiteSpace=wrap;html=1;" vertex="1" parent="1">
          <mxGeometry x="690" y="1160" width="310" height="120" as="geometry" />
        </mxCell>
        <mxCell id="oOpoHNsiLGJUsjlcoA77-13" value="&lt;font style=&quot;font-size: 20px;&quot;&gt;Login&lt;/font&gt;" style="ellipse;whiteSpace=wrap;html=1;" vertex="1" parent="1">
          <mxGeometry x="1260" y="700" width="290" height="150" as="geometry" />
        </mxCell>
        <mxCell id="oOpoHNsiLGJUsjlcoA77-14" value="&lt;font style=&quot;font-size: 20px;&quot;&gt;BaixarDoc&lt;/font&gt;" style="ellipse;whiteSpace=wrap;html=1;" vertex="1" parent="1">
          <mxGeometry x="1280" y="977.5" width="210" height="105" as="geometry" />
        </mxCell>
        <mxCell id="oOpoHNsiLGJUsjlcoA77-16" value="&lt;font style=&quot;font-size: 20px;&quot;&gt;DigitalizarDoc&lt;/font&gt;" style="ellipse;whiteSpace=wrap;html=1;" vertex="1" parent="1">
          <mxGeometry x="2030" y="380" width="160" height="80" as="geometry" />
        </mxCell>
        <mxCell id="oOpoHNsiLGJUsjlcoA77-17" value="&lt;span style=&quot;font-size: 20px;&quot;&gt;RecebeDoc&lt;/span&gt;" style="ellipse;whiteSpace=wrap;html=1;" vertex="1" parent="1">
          <mxGeometry x="1745" y="500" width="160" height="80" as="geometry" />
        </mxCell>
        <mxCell id="oOpoHNsiLGJUsjlcoA77-18" value="&lt;font style=&quot;font-size: 20px;&quot;&gt;GerarAnalise&lt;/font&gt;" style="ellipse;whiteSpace=wrap;html=1;" vertex="1" parent="1">
          <mxGeometry x="1210" y="490" width="160" height="80" as="geometry" />
        </mxCell>
        <mxCell id="oOpoHNsiLGJUsjlcoA77-19" value="&lt;font style=&quot;font-size: 20px;&quot;&gt;TransformarPDF&lt;/font&gt;" style="ellipse;whiteSpace=wrap;html=1;" vertex="1" parent="1">
          <mxGeometry x="1740" y="240" width="200" height="90" as="geometry" />
        </mxCell>
        <mxCell id="oOpoHNsiLGJUsjlcoA77-20" value="&lt;font style=&quot;font-size: 20px;&quot;&gt;FiltrarDados&lt;/font&gt;" style="ellipse;whiteSpace=wrap;html=1;" vertex="1" parent="1">
          <mxGeometry x="1480" y="350" width="160" height="80" as="geometry" />
        </mxCell>
        <mxCell id="oOpoHNsiLGJUsjlcoA77-23" value="&lt;font style=&quot;font-size: 20px;&quot;&gt;SalvarAnalise&lt;/font&gt;" style="ellipse;whiteSpace=wrap;html=1;" vertex="1" parent="1">
          <mxGeometry x="1150" y="260" width="160" height="80" as="geometry" />
        </mxCell>
        <mxCell id="oOpoHNsiLGJUsjlcoA77-24" value="" style="endArrow=none;html=1;rounded=0;" edge="1" parent="1" source="oOpoHNsiLGJUsjlcoA77-4">
          <mxGeometry width="50" height="50" relative="1" as="geometry">
            <mxPoint x="580" y="870" as="sourcePoint" />
            <mxPoint x="1240" y="1010" as="targetPoint" />
          </mxGeometry>
        </mxCell>
        <mxCell id="oOpoHNsiLGJUsjlcoA77-25" value="" style="endArrow=none;html=1;rounded=0;" edge="1" parent="1" source="oOpoHNsiLGJUsjlcoA77-3">
          <mxGeometry width="50" height="50" relative="1" as="geometry">
            <mxPoint x="330" y="664" as="sourcePoint" />
            <mxPoint x="1530" y="1010" as="targetPoint" />
          </mxGeometry>
        </mxCell>
        <mxCell id="oOpoHNsiLGJUsjlcoA77-26" value="" style="endArrow=none;html=1;rounded=0;" edge="1" parent="1">
          <mxGeometry width="50" height="50" relative="1" as="geometry">
            <mxPoint x="320" y="760" as="sourcePoint" />
            <mxPoint x="530" y="960" as="targetPoint" />
          </mxGeometry>
        </mxCell>
        <mxCell id="oOpoHNsiLGJUsjlcoA77-27" value="" style="endArrow=none;html=1;rounded=0;" edge="1" parent="1">
          <mxGeometry width="50" height="50" relative="1" as="geometry">
            <mxPoint x="350" y="580" as="sourcePoint" />
            <mxPoint x="540" y="470" as="targetPoint" />
          </mxGeometry>
        </mxCell>
        <mxCell id="oOpoHNsiLGJUsjlcoA77-29" value="" style="endArrow=none;html=1;rounded=0;" edge="1" parent="1">
          <mxGeometry width="50" height="50" relative="1" as="geometry">
            <mxPoint x="300" y="510" as="sourcePoint" />
            <mxPoint x="590" y="270" as="targetPoint" />
          </mxGeometry>
        </mxCell>
        <mxCell id="oOpoHNsiLGJUsjlcoA77-30" value="" style="endArrow=none;html=1;rounded=0;" edge="1" parent="1">
          <mxGeometry width="50" height="50" relative="1" as="geometry">
            <mxPoint x="2200" y="450" as="sourcePoint" />
            <mxPoint x="2430" y="570" as="targetPoint" />
          </mxGeometry>
        </mxCell>
        <mxCell id="oOpoHNsiLGJUsjlcoA77-31" value="" style="endArrow=block;dashed=1;endFill=0;endSize=12;html=1;rounded=0;" edge="1" parent="1">
          <mxGeometry width="160" relative="1" as="geometry">
            <mxPoint x="1840" y="340" as="sourcePoint" />
            <mxPoint x="1825" y="490" as="targetPoint" />
          </mxGeometry>
        </mxCell>
        <mxCell id="oOpoHNsiLGJUsjlcoA77-32" value="Extend" style="edgeLabel;html=1;align=center;verticalAlign=middle;resizable=0;points=[];fontSize=15;" vertex="1" connectable="0" parent="oOpoHNsiLGJUsjlcoA77-31">
          <mxGeometry x="-0.0389" y="-1" relative="1" as="geometry">
            <mxPoint as="offset" />
          </mxGeometry>
        </mxCell>
        <mxCell id="oOpoHNsiLGJUsjlcoA77-33" value="" style="endArrow=block;dashed=1;endFill=0;endSize=12;html=1;rounded=0;entryX=0.836;entryY=0.276;entryDx=0;entryDy=0;entryPerimeter=0;" edge="1" parent="1" target="xIWPowrSUF2ikZ3RjoKm-3">
          <mxGeometry width="160" relative="1" as="geometry">
            <mxPoint x="1910" y="520" as="sourcePoint" />
            <mxPoint x="1835" y="500" as="targetPoint" />
          </mxGeometry>
        </mxCell>
        <mxCell id="oOpoHNsiLGJUsjlcoA77-34" value="Includ" style="edgeLabel;html=1;align=center;verticalAlign=middle;resizable=0;points=[];fontSize=15;" vertex="1" connectable="0" parent="oOpoHNsiLGJUsjlcoA77-33">
          <mxGeometry x="-0.0389" y="-1" relative="1" as="geometry">
            <mxPoint as="offset" />
          </mxGeometry>
        </mxCell>
        <mxCell id="oOpoHNsiLGJUsjlcoA77-36" value="" style="endArrow=block;dashed=1;endFill=0;endSize=12;html=1;rounded=0;" edge="1" parent="1">
          <mxGeometry width="160" relative="1" as="geometry">
            <mxPoint x="1630" y="420" as="sourcePoint" />
            <mxPoint x="1740" y="520" as="targetPoint" />
          </mxGeometry>
        </mxCell>
        <mxCell id="oOpoHNsiLGJUsjlcoA77-37" value="Includ" style="edgeLabel;html=1;align=center;verticalAlign=middle;resizable=0;points=[];fontSize=15;" vertex="1" connectable="0" parent="oOpoHNsiLGJUsjlcoA77-36">
          <mxGeometry x="-0.0389" y="-1" relative="1" as="geometry">
            <mxPoint as="offset" />
          </mxGeometry>
        </mxCell>
        <mxCell id="oOpoHNsiLGJUsjlcoA77-38" value="" style="endArrow=block;dashed=1;endFill=0;endSize=12;html=1;rounded=0;" edge="1" parent="1">
          <mxGeometry width="160" relative="1" as="geometry">
            <mxPoint x="1360" y="490" as="sourcePoint" />
            <mxPoint x="1480" y="410" as="targetPoint" />
          </mxGeometry>
        </mxCell>
        <mxCell id="oOpoHNsiLGJUsjlcoA77-39" value="Includ" style="edgeLabel;html=1;align=center;verticalAlign=middle;resizable=0;points=[];fontSize=15;" vertex="1" connectable="0" parent="oOpoHNsiLGJUsjlcoA77-38">
          <mxGeometry x="-0.0389" y="-1" relative="1" as="geometry">
            <mxPoint as="offset" />
          </mxGeometry>
        </mxCell>
        <mxCell id="oOpoHNsiLGJUsjlcoA77-40" value="" style="endArrow=block;dashed=1;endFill=0;endSize=12;html=1;rounded=0;" edge="1" parent="1">
          <mxGeometry width="160" relative="1" as="geometry">
            <mxPoint x="1240" y="360" as="sourcePoint" />
            <mxPoint x="1270" y="480" as="targetPoint" />
          </mxGeometry>
        </mxCell>
        <mxCell id="oOpoHNsiLGJUsjlcoA77-41" value="Includ" style="edgeLabel;html=1;align=center;verticalAlign=middle;resizable=0;points=[];fontSize=15;" vertex="1" connectable="0" parent="oOpoHNsiLGJUsjlcoA77-40">
          <mxGeometry x="-0.0389" y="-1" relative="1" as="geometry">
            <mxPoint as="offset" />
          </mxGeometry>
        </mxCell>
        <mxCell id="oOpoHNsiLGJUsjlcoA77-42" value="" style="endArrow=block;dashed=1;endFill=0;endSize=12;html=1;rounded=0;" edge="1" parent="1">
          <mxGeometry width="160" relative="1" as="geometry">
            <mxPoint x="1550" y="740" as="sourcePoint" />
            <mxPoint x="1770" y="580" as="targetPoint" />
          </mxGeometry>
        </mxCell>
        <mxCell id="oOpoHNsiLGJUsjlcoA77-43" value="Includ" style="edgeLabel;html=1;align=center;verticalAlign=middle;resizable=0;points=[];" vertex="1" connectable="0" parent="oOpoHNsiLGJUsjlcoA77-42">
          <mxGeometry x="-0.0389" y="-1" relative="1" as="geometry">
            <mxPoint as="offset" />
          </mxGeometry>
        </mxCell>
        <mxCell id="oOpoHNsiLGJUsjlcoA77-44" value="" style="endArrow=block;dashed=1;endFill=0;endSize=12;html=1;rounded=0;" edge="1" parent="1">
          <mxGeometry width="160" relative="1" as="geometry">
            <mxPoint x="730" y="1160" as="sourcePoint" />
            <mxPoint x="650" y="1070" as="targetPoint" />
          </mxGeometry>
        </mxCell>
        <mxCell id="oOpoHNsiLGJUsjlcoA77-45" value="Extend" style="edgeLabel;html=1;align=center;verticalAlign=middle;resizable=0;points=[];fontSize=15;" vertex="1" connectable="0" parent="oOpoHNsiLGJUsjlcoA77-44">
          <mxGeometry x="-0.0103" y="2" relative="1" as="geometry">
            <mxPoint x="1" as="offset" />
          </mxGeometry>
        </mxCell>
        <mxCell id="oOpoHNsiLGJUsjlcoA77-46" value="" style="endArrow=block;dashed=1;endFill=0;endSize=12;html=1;rounded=0;" edge="1" parent="1">
          <mxGeometry width="160" relative="1" as="geometry">
            <mxPoint x="1405" y="860" as="sourcePoint" />
            <mxPoint x="1390" y="970" as="targetPoint" />
          </mxGeometry>
        </mxCell>
        <mxCell id="oOpoHNsiLGJUsjlcoA77-47" value="Includ" style="edgeLabel;html=1;align=center;verticalAlign=middle;resizable=0;points=[];fontSize=15;" vertex="1" connectable="0" parent="oOpoHNsiLGJUsjlcoA77-46">
          <mxGeometry x="-0.0389" y="-1" relative="1" as="geometry">
            <mxPoint as="offset" />
          </mxGeometry>
        </mxCell>
        <mxCell id="oOpoHNsiLGJUsjlcoA77-48" value="" style="endArrow=block;dashed=1;endFill=0;endSize=12;html=1;rounded=0;" edge="1" parent="1">
          <mxGeometry width="160" relative="1" as="geometry">
            <mxPoint x="760" y="580" as="sourcePoint" />
            <mxPoint x="700" y="500" as="targetPoint" />
          </mxGeometry>
        </mxCell>
        <mxCell id="oOpoHNsiLGJUsjlcoA77-49" value="Extend" style="edgeLabel;html=1;align=center;verticalAlign=middle;resizable=0;points=[];fontSize=15;" vertex="1" connectable="0" parent="oOpoHNsiLGJUsjlcoA77-48">
          <mxGeometry x="-0.0103" y="2" relative="1" as="geometry">
            <mxPoint x="1" as="offset" />
          </mxGeometry>
        </mxCell>
        <mxCell id="oOpoHNsiLGJUsjlcoA77-50" value="" style="endArrow=block;dashed=1;endFill=0;endSize=12;html=1;rounded=0;" edge="1" parent="1">
          <mxGeometry width="160" relative="1" as="geometry">
            <mxPoint x="860" y="270" as="sourcePoint" />
            <mxPoint x="730" y="240" as="targetPoint" />
          </mxGeometry>
        </mxCell>
        <mxCell id="oOpoHNsiLGJUsjlcoA77-51" value="Extend" style="edgeLabel;html=1;align=center;verticalAlign=middle;resizable=0;points=[];fontSize=15;" vertex="1" connectable="0" parent="oOpoHNsiLGJUsjlcoA77-50">
          <mxGeometry x="-0.0103" y="2" relative="1" as="geometry">
            <mxPoint x="1" as="offset" />
          </mxGeometry>
        </mxCell>
        <mxCell id="oOpoHNsiLGJUsjlcoA77-52" value="" style="rounded=0;whiteSpace=wrap;html=1;strokeColor=none;" vertex="1" parent="1">
          <mxGeometry x="2440" y="695" width="120" height="60" as="geometry" />
        </mxCell>
        <mxCell id="oOpoHNsiLGJUsjlcoA77-53" value="&lt;font style=&quot;font-size: 25px;&quot;&gt;Estagiário&lt;/font&gt;" style="text;html=1;align=center;verticalAlign=middle;whiteSpace=wrap;rounded=0;" vertex="1" parent="1">
          <mxGeometry x="2470" y="700" width="60" height="30" as="geometry" />
        </mxCell>
        <mxCell id="oOpoHNsiLGJUsjlcoA77-54" value="" style="rounded=0;whiteSpace=wrap;html=1;strokeColor=none;" vertex="1" parent="1">
          <mxGeometry x="200" y="730" width="120" height="60" as="geometry" />
        </mxCell>
        <mxCell id="oOpoHNsiLGJUsjlcoA77-55" value="&lt;span style=&quot;font-size: 25px;&quot;&gt;Diretor&lt;/span&gt;&lt;div&gt;&lt;span style=&quot;font-size: 25px;&quot;&gt;Financeiro&lt;/span&gt;&lt;/div&gt;" style="text;html=1;align=center;verticalAlign=middle;whiteSpace=wrap;rounded=0;" vertex="1" parent="1">
          <mxGeometry x="230" y="735" width="60" height="30" as="geometry" />
        </mxCell>
      </root>
    </mxGraphModel>
  </diagram>
</mxfile>
